%TF.GenerationSoftware,KiCad,Pcbnew,(6.0.11)*%
%TF.CreationDate,2023-02-12T17:43:03-06:00*%
%TF.ProjectId,RetroElf-Front-Panel,52657472-6f45-46c6-962d-46726f6e742d,rev?*%
%TF.SameCoordinates,Original*%
%TF.FileFunction,Profile,NP*%
%FSLAX46Y46*%
G04 Gerber Fmt 4.6, Leading zero omitted, Abs format (unit mm)*
G04 Created by KiCad (PCBNEW (6.0.11)) date 2023-02-12 17:43:03*
%MOMM*%
%LPD*%
G01*
G04 APERTURE LIST*
%TA.AperFunction,Profile*%
%ADD10C,0.025400*%
%TD*%
G04 APERTURE END LIST*
D10*
X60188946Y-82375000D02*
G75*
G03*
X60188946Y-82375000I-2488946J0D01*
G01*
X218355000Y-98250000D02*
G75*
G03*
X218355000Y-98250000I-3175000J0D01*
G01*
X46600000Y-125840000D02*
G75*
G03*
X51600000Y-130840000I5000000J0D01*
G01*
X217668946Y-60785000D02*
G75*
G03*
X217668946Y-60785000I-2488946J0D01*
G01*
X187188946Y-82375000D02*
G75*
G03*
X187188946Y-82375000I-2488946J0D01*
G01*
X90668946Y-82375000D02*
G75*
G03*
X90668946Y-82375000I-2488946J0D01*
G01*
X166868946Y-60785000D02*
G75*
G03*
X166868946Y-60785000I-2488946J0D01*
G01*
X241600000Y-130840000D02*
X51600000Y-130840000D01*
X207508946Y-82375000D02*
G75*
G03*
X207508946Y-82375000I-2488946J0D01*
G01*
X244100000Y-95590000D02*
X244100000Y-80590000D01*
X207508946Y-60785000D02*
G75*
G03*
X207508946Y-60785000I-2488946J0D01*
G01*
X197348946Y-82375000D02*
G75*
G03*
X197348946Y-82375000I-2488946J0D01*
G01*
X49100000Y-80590000D02*
X49100000Y-95590000D01*
X244100000Y-80590000D02*
X246600000Y-80590000D01*
X141468946Y-60785000D02*
G75*
G03*
X141468946Y-60785000I-2488946J0D01*
G01*
X157395000Y-98250000D02*
G75*
G03*
X157395000Y-98250000I-3175000J0D01*
G01*
X121148946Y-60785000D02*
G75*
G03*
X121148946Y-60785000I-2488946J0D01*
G01*
X121835000Y-98250000D02*
G75*
G03*
X121835000Y-98250000I-3175000J0D01*
G01*
X208195000Y-98250000D02*
G75*
G03*
X208195000Y-98250000I-3175000J0D01*
G01*
X51600000Y-45340000D02*
G75*
G03*
X46600000Y-50340000I0J-5000000D01*
G01*
X110988946Y-60785000D02*
G75*
G03*
X110988946Y-60785000I-2488946J0D01*
G01*
X80508946Y-60785000D02*
G75*
G03*
X80508946Y-60785000I-2488946J0D01*
G01*
X110988946Y-82375000D02*
G75*
G03*
X110988946Y-82375000I-2488946J0D01*
G01*
X228515000Y-98250000D02*
G75*
G03*
X228515000Y-98250000I-3175000J0D01*
G01*
X177028946Y-60785000D02*
G75*
G03*
X177028946Y-60785000I-2488946J0D01*
G01*
X131308946Y-60785000D02*
G75*
G03*
X131308946Y-60785000I-2488946J0D01*
G01*
X166868946Y-82375000D02*
G75*
G03*
X166868946Y-82375000I-2488946J0D01*
G01*
X46600000Y-50340000D02*
X46600000Y-80590000D01*
X246600000Y-50340000D02*
X246600000Y-80590000D01*
X80508946Y-82375000D02*
G75*
G03*
X80508946Y-82375000I-2488946J0D01*
G01*
X100828946Y-82375000D02*
G75*
G03*
X100828946Y-82375000I-2488946J0D01*
G01*
X101515000Y-98250000D02*
G75*
G03*
X101515000Y-98250000I-3175000J0D01*
G01*
X131308946Y-82375000D02*
G75*
G03*
X131308946Y-82375000I-2488946J0D01*
G01*
X167555000Y-98250000D02*
G75*
G03*
X167555000Y-98250000I-3175000J0D01*
G01*
X187188946Y-60785000D02*
G75*
G03*
X187188946Y-60785000I-2488946J0D01*
G01*
X217668946Y-82375000D02*
G75*
G03*
X217668946Y-82375000I-2488946J0D01*
G01*
X70348946Y-60785000D02*
G75*
G03*
X70348946Y-60785000I-2488946J0D01*
G01*
X246600000Y-95590000D02*
X244100000Y-95590000D01*
X227828946Y-82375000D02*
G75*
G03*
X227828946Y-82375000I-2488946J0D01*
G01*
X227828946Y-60785000D02*
G75*
G03*
X227828946Y-60785000I-2488946J0D01*
G01*
X46600000Y-80590000D02*
X49100000Y-80590000D01*
X197348946Y-60785000D02*
G75*
G03*
X197348946Y-60785000I-2488946J0D01*
G01*
X246600000Y-95590000D02*
X246600000Y-125840000D01*
X142155000Y-98250000D02*
G75*
G03*
X142155000Y-98250000I-3175000J0D01*
G01*
X177028946Y-82375000D02*
G75*
G03*
X177028946Y-82375000I-2488946J0D01*
G01*
X241600000Y-130840000D02*
G75*
G03*
X246600000Y-125840000I0J5000000D01*
G01*
X246600000Y-50340000D02*
G75*
G03*
X241600000Y-45340000I-5000000J0D01*
G01*
X156708946Y-82375000D02*
G75*
G03*
X156708946Y-82375000I-2488946J0D01*
G01*
X131995000Y-98250000D02*
G75*
G03*
X131995000Y-98250000I-3175000J0D01*
G01*
X187875000Y-98250000D02*
G75*
G03*
X187875000Y-98250000I-3175000J0D01*
G01*
X51600000Y-45340000D02*
X241600000Y-45340000D01*
X49100000Y-95590000D02*
X46600000Y-95590000D01*
X111675000Y-98250000D02*
G75*
G03*
X111675000Y-98250000I-3175000J0D01*
G01*
X198035000Y-98250000D02*
G75*
G03*
X198035000Y-98250000I-3175000J0D01*
G01*
X177715000Y-98250000D02*
G75*
G03*
X177715000Y-98250000I-3175000J0D01*
G01*
X70348946Y-82375000D02*
G75*
G03*
X70348946Y-82375000I-2488946J0D01*
G01*
X90668946Y-60785000D02*
G75*
G03*
X90668946Y-60785000I-2488946J0D01*
G01*
X121148946Y-82375000D02*
G75*
G03*
X121148946Y-82375000I-2488946J0D01*
G01*
X156708946Y-60785000D02*
G75*
G03*
X156708946Y-60785000I-2488946J0D01*
G01*
X141468946Y-82375000D02*
G75*
G03*
X141468946Y-82375000I-2488946J0D01*
G01*
X46600000Y-125840000D02*
X46600000Y-95590000D01*
X237988946Y-82375000D02*
G75*
G03*
X237988946Y-82375000I-2488946J0D01*
G01*
X100828946Y-60785000D02*
G75*
G03*
X100828946Y-60785000I-2488946J0D01*
G01*
M02*
